<svg version="1.1" xmlns="http://www.w3.org/2000/svg" viewBox="0 0 906.0706309116662 579.5833331097583" width="2718.2118927349984" height="1738.749999329275">
  <!-- svg-source:excalidraw -->
  
  <defs>
    <style class="style-fonts">
      @font-face {
        font-family: "Virgil";
        src: url("https://excalidraw.com/Virgil.woff2");
      }
      @font-face {
        font-family: "Cascadia";
        src: url("https://excalidraw.com/Cascadia.woff2");
      }
      @font-face {
        font-family: "Assistant";
        src: url("https://excalidraw.com/Assistant-Regular.woff2");
      }
    </style>
    
  </defs>
  <rect x="0" y="0" width="906.0706309116662" height="579.5833331097583" fill="#ffffff"></rect><g stroke-linecap="round" transform="translate(10 319.1666664430918) rotate(0 103.75000000000011 47.916666666666515)"><path d="M23.96 0 C69.29 0, 114.62 0, 183.54 0 C199.51 0, 207.5 7.99, 207.5 23.96 C207.5 33.57, 207.5 43.18, 207.5 71.87 C207.5 87.85, 199.51 95.83, 183.54 95.83 C140.35 95.83, 97.16 95.83, 23.96 95.83 C7.99 95.83, 0 87.85, 0 71.87 C0 58.33, 0 44.78, 0 23.96 C0 7.99, 7.99 0, 23.96 0" stroke="none" stroke-width="0" fill="#a5d8ff"></path><path d="M23.96 0 C85.82 0, 147.68 0, 183.54 0 M23.96 0 C57.52 0, 91.08 0, 183.54 0 M183.54 0 C199.51 0, 207.5 7.99, 207.5 23.96 M183.54 0 C199.51 0, 207.5 7.99, 207.5 23.96 M207.5 23.96 C207.5 37.13, 207.5 50.31, 207.5 71.87 M207.5 23.96 C207.5 34.46, 207.5 44.96, 207.5 71.87 M207.5 71.87 C207.5 87.85, 199.51 95.83, 183.54 95.83 M207.5 71.87 C207.5 87.85, 199.51 95.83, 183.54 95.83 M183.54 95.83 C127.81 95.83, 72.08 95.83, 23.96 95.83 M183.54 95.83 C124.52 95.83, 65.49 95.83, 23.96 95.83 M23.96 95.83 C7.99 95.83, 0 87.85, 0 71.87 M23.96 95.83 C7.99 95.83, 0 87.85, 0 71.87 M0 71.87 C0 56.23, 0 40.59, 0 23.96 M0 71.87 C0 61.43, 0 50.98, 0 23.96 M0 23.96 C0 7.99, 7.99 0, 23.96 0 M0 23.96 C0 7.99, 7.99 0, 23.96 0" stroke="#1e1e1e" stroke-width="2" fill="none"></path></g><g transform="translate(37.578125000000114 355.0833331097583) rotate(0 76.171875 12)"><text x="76.171875" y="19.3125" font-family="Cascadia, Segoe UI Emoji" font-size="20px" fill="#1e1e1e" text-anchor="middle" style="white-space: pre;" direction="ltr" dominant-baseline="alphabetic">AbstractField</text></g><g stroke-linecap="round" transform="translate(349.2853153333332 164.58333277642532) rotate(0 103.75000000000011 47.916666666666515)"><path d="M23.96 0 C74.99 0, 126.03 0, 183.54 0 C199.51 0, 207.5 7.99, 207.5 23.96 C207.5 41, 207.5 58.03, 207.5 71.87 C207.5 87.85, 199.51 95.83, 183.54 95.83 C133.69 95.83, 83.84 95.83, 23.96 95.83 C7.99 95.83, 0 87.85, 0 71.87 C0 57.77, 0 43.67, 0 23.96 C0 7.99, 7.99 0, 23.96 0" stroke="none" stroke-width="0" fill="#a5d8ff"></path><path d="M23.96 0 C66.45 0, 108.94 0, 183.54 0 M23.96 0 C85.28 0, 146.61 0, 183.54 0 M183.54 0 C199.51 0, 207.5 7.99, 207.5 23.96 M183.54 0 C199.51 0, 207.5 7.99, 207.5 23.96 M207.5 23.96 C207.5 34.95, 207.5 45.95, 207.5 71.87 M207.5 23.96 C207.5 39.04, 207.5 54.13, 207.5 71.87 M207.5 71.87 C207.5 87.85, 199.51 95.83, 183.54 95.83 M207.5 71.87 C207.5 87.85, 199.51 95.83, 183.54 95.83 M183.54 95.83 C121.63 95.83, 59.72 95.83, 23.96 95.83 M183.54 95.83 C125.25 95.83, 66.97 95.83, 23.96 95.83 M23.96 95.83 C7.99 95.83, 0 87.85, 0 71.87 M23.96 95.83 C7.99 95.83, 0 87.85, 0 71.87 M0 71.87 C0 56.42, 0 40.96, 0 23.96 M0 71.87 C0 57.66, 0 43.45, 0 23.96 M0 23.96 C0 7.99, 7.99 0, 23.96 0 M0 23.96 C0 7.99, 7.99 0, 23.96 0" stroke="#1e1e1e" stroke-width="2" fill="none"></path></g><g transform="translate(376.8634403333332 200.49999944309184) rotate(0 76.171875 12)"><text x="76.171875" y="19.3125" font-family="Cascadia, Segoe UI Emoji" font-size="20px" fill="#1e1e1e" text-anchor="middle" style="white-space: pre;" direction="ltr" dominant-baseline="alphabetic">ConstantField</text></g><g stroke-linecap="round" transform="translate(349.2853153333332 473.7499997764253) rotate(0 103.75000000000011 47.916666666666515)"><path d="M23.96 0 C58.14 0, 92.32 0, 183.54 0 C199.51 0, 207.5 7.99, 207.5 23.96 C207.5 35.5, 207.5 47.03, 207.5 71.87 C207.5 87.85, 199.51 95.83, 183.54 95.83 C140.86 95.83, 98.19 95.83, 23.96 95.83 C7.99 95.83, 0 87.85, 0 71.87 C0 56.52, 0 41.17, 0 23.96 C0 7.99, 7.99 0, 23.96 0" stroke="none" stroke-width="0" fill="#ffec99"></path><path d="M23.96 0 C63.74 0, 103.52 0, 183.54 0 M23.96 0 C82.52 0, 141.08 0, 183.54 0 M183.54 0 C199.51 0, 207.5 7.99, 207.5 23.96 M183.54 0 C199.51 0, 207.5 7.99, 207.5 23.96 M207.5 23.96 C207.5 34.37, 207.5 44.78, 207.5 71.87 M207.5 23.96 C207.5 37.93, 207.5 51.9, 207.5 71.87 M207.5 71.87 C207.5 87.85, 199.51 95.83, 183.54 95.83 M207.5 71.87 C207.5 87.85, 199.51 95.83, 183.54 95.83 M183.54 95.83 C119.79 95.83, 56.05 95.83, 23.96 95.83 M183.54 95.83 C126.8 95.83, 70.06 95.83, 23.96 95.83 M23.96 95.83 C7.99 95.83, 0 87.85, 0 71.87 M23.96 95.83 C7.99 95.83, 0 87.85, 0 71.87 M0 71.87 C0 53.18, 0 34.48, 0 23.96 M0 71.87 C0 57.77, 0 43.67, 0 23.96 M0 23.96 C0 7.99, 7.99 0, 23.96 0 M0 23.96 C0 7.99, 7.99 0, 23.96 0" stroke="#1e1e1e" stroke-width="2" fill="none"></path></g><g transform="translate(376.8634403333332 509.6666664430918) rotate(0 76.171875 12)"><text x="76.171875" y="19.3125" font-family="Cascadia, Segoe UI Emoji" font-size="20px" fill="#1e1e1e" text-anchor="middle" style="white-space: pre;" direction="ltr" dominant-baseline="alphabetic">FunctionField</text></g><g stroke-linecap="round" transform="translate(349.28531499999974 319.16666644309225) rotate(0 103.75000000000011 47.916666666666515)"><path d="M23.96 0 C67.37 0, 110.78 0, 183.54 0 C199.51 0, 207.5 7.99, 207.5 23.96 C207.5 36.84, 207.5 49.72, 207.5 71.87 C207.5 87.85, 199.51 95.83, 183.54 95.83 C127.61 95.83, 71.69 95.83, 23.96 95.83 C7.99 95.83, 0 87.85, 0 71.87 C0 61.45, 0 51.02, 0 23.96 C0 7.99, 7.99 0, 23.96 0" stroke="none" stroke-width="0" fill="#ffec99"></path><path d="M23.96 0 C64.06 0, 104.16 0, 183.54 0 M23.96 0 C84.96 0, 145.96 0, 183.54 0 M183.54 0 C199.51 0, 207.5 7.99, 207.5 23.96 M183.54 0 C199.51 0, 207.5 7.99, 207.5 23.96 M207.5 23.96 C207.5 34.23, 207.5 44.51, 207.5 71.87 M207.5 23.96 C207.5 35.38, 207.5 46.81, 207.5 71.87 M207.5 71.87 C207.5 87.85, 199.51 95.83, 183.54 95.83 M207.5 71.87 C207.5 87.85, 199.51 95.83, 183.54 95.83 M183.54 95.83 C142.43 95.83, 101.31 95.83, 23.96 95.83 M183.54 95.83 C130.98 95.83, 78.41 95.83, 23.96 95.83 M23.96 95.83 C7.99 95.83, 0 87.85, 0 71.87 M23.96 95.83 C7.99 95.83, 0 87.85, 0 71.87 M0 71.87 C0 60.5, 0 49.12, 0 23.96 M0 71.87 C0 61.33, 0 50.79, 0 23.96 M0 23.96 C0 7.99, 7.99 0, 23.96 0 M0 23.96 C0 7.99, 7.99 0, 23.96 0" stroke="#1e1e1e" stroke-width="2" fill="none"></path></g><g transform="translate(423.73843999999997 355.08333310975877) rotate(0 29.296875 12)"><text x="29.296875" y="19.3125" font-family="Cascadia, Segoe UI Emoji" font-size="20px" fill="#1e1e1e" text-anchor="middle" style="white-space: pre;" direction="ltr" dominant-baseline="alphabetic">Field</text></g><g stroke-linecap="round" transform="translate(688.5706303333333 164.583333109759) rotate(0 103.75000000000011 47.916666666666515)"><path d="M23.96 0 C64.91 0, 105.85 0, 183.54 0 C199.51 0, 207.5 7.99, 207.5 23.96 C207.5 36.92, 207.5 49.88, 207.5 71.87 C207.5 87.85, 199.51 95.83, 183.54 95.83 C128 95.83, 72.46 95.83, 23.96 95.83 C7.99 95.83, 0 87.85, 0 71.87 C0 57.25, 0 42.63, 0 23.96 C0 7.99, 7.99 0, 23.96 0" stroke="none" stroke-width="0" fill="#ffec99"></path><path d="M23.96 0 C57.89 0, 91.83 0, 183.54 0 M23.96 0 C72.37 0, 120.79 0, 183.54 0 M183.54 0 C199.51 0, 207.5 7.99, 207.5 23.96 M183.54 0 C199.51 0, 207.5 7.99, 207.5 23.96 M207.5 23.96 C207.5 37.96, 207.5 51.96, 207.5 71.87 M207.5 23.96 C207.5 39.13, 207.5 54.3, 207.5 71.87 M207.5 71.87 C207.5 87.85, 199.51 95.83, 183.54 95.83 M207.5 71.87 C207.5 87.85, 199.51 95.83, 183.54 95.83 M183.54 95.83 C130.45 95.83, 77.36 95.83, 23.96 95.83 M183.54 95.83 C150.28 95.83, 117.02 95.83, 23.96 95.83 M23.96 95.83 C7.99 95.83, 0 87.85, 0 71.87 M23.96 95.83 C7.99 95.83, 0 87.85, 0 71.87 M0 71.87 C0 55.32, 0 38.77, 0 23.96 M0 71.87 C0 55.17, 0 38.47, 0 23.96 M0 23.96 C0 7.99, 7.99 0, 23.96 0 M0 23.96 C0 7.99, 7.99 0, 23.96 0" stroke="#1e1e1e" stroke-width="2" fill="none"></path></g><g transform="translate(745.4456303333333 200.4999997764255) rotate(0 46.875 12)"><text x="46.875" y="19.3125" font-family="Cascadia, Segoe UI Emoji" font-size="20px" fill="#1e1e1e" text-anchor="middle" style="white-space: pre;" direction="ltr" dominant-baseline="alphabetic">OneField</text></g><g stroke-linecap="round" transform="translate(688.5706309116661 10) rotate(0 103.75000000000006 47.916666666666515)"><path d="M23.96 0 C60.05 0, 96.15 0, 183.54 0 C199.51 0, 207.5 7.99, 207.5 23.96 C207.5 40.98, 207.5 58.01, 207.5 71.87 C207.5 87.85, 199.51 95.83, 183.54 95.83 C124.11 95.83, 64.68 95.83, 23.96 95.83 C7.99 95.83, 0 87.85, 0 71.87 C0 60.14, 0 48.41, 0 23.96 C0 7.99, 7.99 0, 23.96 0" stroke="none" stroke-width="0" fill="#ffec99"></path><path d="M23.96 0 C77.47 0, 130.99 0, 183.54 0 M23.96 0 C79.84 0, 135.71 0, 183.54 0 M183.54 0 C199.51 0, 207.5 7.99, 207.5 23.96 M183.54 0 C199.51 0, 207.5 7.99, 207.5 23.96 M207.5 23.96 C207.5 40.89, 207.5 57.81, 207.5 71.87 M207.5 23.96 C207.5 41.47, 207.5 58.98, 207.5 71.87 M207.5 71.87 C207.5 87.85, 199.51 95.83, 183.54 95.83 M207.5 71.87 C207.5 87.85, 199.51 95.83, 183.54 95.83 M183.54 95.83 C123.4 95.83, 63.26 95.83, 23.96 95.83 M183.54 95.83 C143.79 95.83, 104.03 95.83, 23.96 95.83 M23.96 95.83 C7.99 95.83, 0 87.85, 0 71.87 M23.96 95.83 C7.99 95.83, 0 87.85, 0 71.87 M0 71.87 C0 58.76, 0 45.65, 0 23.96 M0 71.87 C0 61.6, 0 51.32, 0 23.96 M0 23.96 C0 7.99, 7.99 0, 23.96 0 M0 23.96 C0 7.99, 7.99 0, 23.96 0" stroke="#1e1e1e" stroke-width="2" fill="none"></path></g><g transform="translate(733.726880911666 45.916666666666515) rotate(0 58.59375 12)"><text x="58.59375" y="19.3125" font-family="Cascadia, Segoe UI Emoji" font-size="20px" fill="#1e1e1e" text-anchor="middle" style="white-space: pre;" direction="ltr" dominant-baseline="alphabetic">ValueField</text></g><g stroke-linecap="round" transform="translate(688.5706299999999 319.1666664430925) rotate(0 103.75000000000006 47.91666666666663)"><path d="M23.96 0 C84.72 0, 145.48 0, 183.54 0 C199.51 0, 207.5 7.99, 207.5 23.96 C207.5 34.53, 207.5 45.1, 207.5 71.87 C207.5 87.85, 199.51 95.83, 183.54 95.83 C151.49 95.83, 119.44 95.83, 23.96 95.83 C7.99 95.83, 0 87.85, 0 71.87 C0 61.95, 0 52.02, 0 23.96 C0 7.99, 7.99 0, 23.96 0" stroke="none" stroke-width="0" fill="#ffec99"></path><path d="M23.96 0 C60.35 0, 96.73 0, 183.54 0 M23.96 0 C67.8 0, 111.65 0, 183.54 0 M183.54 0 C199.51 0, 207.5 7.99, 207.5 23.96 M183.54 0 C199.51 0, 207.5 7.99, 207.5 23.96 M207.5 23.96 C207.5 39.17, 207.5 54.38, 207.5 71.87 M207.5 23.96 C207.5 41.44, 207.5 58.93, 207.5 71.87 M207.5 71.87 C207.5 87.85, 199.51 95.83, 183.54 95.83 M207.5 71.87 C207.5 87.85, 199.51 95.83, 183.54 95.83 M183.54 95.83 C132.06 95.83, 80.59 95.83, 23.96 95.83 M183.54 95.83 C122.33 95.83, 61.13 95.83, 23.96 95.83 M23.96 95.83 C7.99 95.83, 0 87.85, 0 71.87 M23.96 95.83 C7.99 95.83, 0 87.85, 0 71.87 M0 71.87 C0 59.52, 0 47.16, 0 23.96 M0 71.87 C0 54.66, 0 37.44, 0 23.96 M0 23.96 C0 7.99, 7.99 0, 23.96 0 M0 23.96 C0 7.99, 7.99 0, 23.96 0" stroke="#1e1e1e" stroke-width="2" fill="none"></path></g><g transform="translate(739.5862549999998 355.083333109759) rotate(0 52.734375 12)"><text x="52.734375" y="19.3125" font-family="Cascadia, Segoe UI Emoji" font-size="20px" fill="#1e1e1e" text-anchor="middle" style="white-space: pre;" direction="ltr" dominant-baseline="alphabetic">ZeroField</text></g><g stroke-linecap="round"><g transform="translate(216.8333326666666 367.0833327764253) rotate(0 39 0)"><path d="M0 0 C13 0, 65 0, 78 0 M0 0 C13 0, 65 0, 78 0" stroke="#1e1e1e" stroke-width="2" fill="none"></path></g></g><mask></mask><g stroke-linecap="round"><g transform="translate(295.2083336666666 202.83333277642532) rotate(0 0 164.25)"><path d="M0 0 C0 54.75, 0 273.75, 0 328.5 M0 0 C0 54.75, 0 273.75, 0 328.5" stroke="#1e1e1e" stroke-width="2" fill="none"></path></g></g><mask></mask><g stroke-linecap="round"><g transform="translate(556.7853152421201 212.4999989658288) rotate(0 39 0)"><path d="M0 0 C13 0, 65 0, 78 0 M0 0 C13 0, 65 0, 78 0" stroke="#1e1e1e" stroke-width="2" fill="none"></path></g></g><mask></mask><g stroke-linecap="round"><g transform="translate(635.1603162421202 48.24999896582881) rotate(0 0 164.25)"><path d="M0 0 C0 54.75, 0 273.75, 0 328.5 M0 0 C0 54.75, 0 273.75, 0 328.5" stroke="#1e1e1e" stroke-width="2" fill="none"></path></g></g><mask></mask><g stroke-linecap="round"><g transform="translate(295.2006480898708 202.83333338967327) rotate(0 27.042333902095777 0)"><path d="M0 0 C9.01 0, 45.07 0, 54.08 0 M0 0 C9.01 0, 45.07 0, 54.08 0" stroke="#1e1e1e" stroke-width="2" fill="none"></path></g><g transform="translate(295.2006480898708 202.83333338967327) rotate(0 27.042333902095777 0)"><path d="M54.08 0 L40.49 6.34 L40.49 -6.34 L54.08 0" stroke="none" stroke-width="0" fill="#1e1e1e" fill-rule="evenodd"></path><path d="M54.08 0 C50.84 1.51, 47.59 3.03, 40.49 6.34 M54.08 0 C50.73 1.56, 47.38 3.13, 40.49 6.34 M40.49 6.34 C40.49 3.15, 40.49 -0.03, 40.49 -6.34 M40.49 6.34 C40.49 3.77, 40.49 1.21, 40.49 -6.34 M40.49 -6.34 C43.93 -4.73, 47.37 -3.13, 54.08 0 M40.49 -6.34 C44.1 -4.66, 47.71 -2.97, 54.08 0 M54.08 0 C54.08 0, 54.08 0, 54.08 0 M54.08 0 C54.08 0, 54.08 0, 54.08 0" stroke="#1e1e1e" stroke-width="2" fill="none"></path></g></g><mask></mask><g stroke-linecap="round"><g transform="translate(294.8333320386697 367.0833325894764) rotate(0 27.042333902095777 0)"><path d="M0 0 C9.01 0, 45.07 0, 54.08 0 M0 0 C9.01 0, 45.07 0, 54.08 0" stroke="#1e1e1e" stroke-width="2" fill="none"></path></g><g transform="translate(294.8333320386697 367.0833325894764) rotate(0 27.042333902095777 0)"><path d="M54.08 0 L40.49 6.34 L40.49 -6.34 L54.08 0" stroke="none" stroke-width="0" fill="#1e1e1e" fill-rule="evenodd"></path><path d="M54.08 0 C49.58 2.1, 45.08 4.2, 40.49 6.34 M54.08 0 C51.14 1.37, 48.19 2.75, 40.49 6.34 M40.49 6.34 C40.49 3.54, 40.49 0.75, 40.49 -6.34 M40.49 6.34 C40.49 2.03, 40.49 -2.27, 40.49 -6.34 M40.49 -6.34 C43.42 -4.97, 46.35 -3.6, 54.08 0 M40.49 -6.34 C44.52 -4.46, 48.56 -2.58, 54.08 0 M54.08 0 C54.08 0, 54.08 0, 54.08 0 M54.08 0 C54.08 0, 54.08 0, 54.08 0" stroke="#1e1e1e" stroke-width="2" fill="none"></path></g></g><mask></mask><g stroke-linecap="round"><g transform="translate(294.83333146592327 531.333333391733) rotate(0 27.042333902095777 0)"><path d="M0 0 C9.01 0, 45.07 0, 54.08 0 M0 0 C9.01 0, 45.07 0, 54.08 0" stroke="#1e1e1e" stroke-width="2" fill="none"></path></g><g transform="translate(294.83333146592327 531.333333391733) rotate(0 27.042333902095777 0)"><path d="M54.08 0 L40.49 6.34 L40.49 -6.34 L54.08 0" stroke="none" stroke-width="0" fill="#1e1e1e" fill-rule="evenodd"></path><path d="M54.08 0 C49.99 1.91, 45.89 3.82, 40.49 6.34 M54.08 0 C49.85 1.98, 45.61 3.95, 40.49 6.34 M40.49 6.34 C40.49 1.84, 40.49 -2.66, 40.49 -6.34 M40.49 6.34 C40.49 2.37, 40.49 -1.6, 40.49 -6.34 M40.49 -6.34 C45.64 -3.94, 50.78 -1.54, 54.08 0 M40.49 -6.34 C43.21 -5.07, 45.94 -3.8, 54.08 0 M54.08 0 C54.08 0, 54.08 0, 54.08 0 M54.08 0 C54.08 0, 54.08 0, 54.08 0" stroke="#1e1e1e" stroke-width="2" fill="none"></path></g></g><mask></mask><g stroke-linecap="round"><g transform="translate(634.485962696154 376.74999873091474) rotate(0 27.042333902095777 0)"><path d="M0 0 C9.01 0, 45.07 0, 54.08 0 M0 0 C9.01 0, 45.07 0, 54.08 0" stroke="#1e1e1e" stroke-width="2" fill="none"></path></g><g transform="translate(634.485962696154 376.74999873091474) rotate(0 27.042333902095777 0)"><path d="M54.08 0 L40.49 6.34 L40.49 -6.34 L54.08 0" stroke="none" stroke-width="0" fill="#1e1e1e" fill-rule="evenodd"></path><path d="M54.08 0 C50.67 1.59, 47.25 3.19, 40.49 6.34 M54.08 0 C50.97 1.45, 47.86 2.9, 40.49 6.34 M40.49 6.34 C40.49 2.22, 40.49 -1.9, 40.49 -6.34 M40.49 6.34 C40.49 2.82, 40.49 -0.69, 40.49 -6.34 M40.49 -6.34 C45.22 -4.13, 49.96 -1.93, 54.08 0 M40.49 -6.34 C44.78 -4.34, 49.07 -2.34, 54.08 0 M54.08 0 C54.08 0, 54.08 0, 54.08 0 M54.08 0 C54.08 0, 54.08 0, 54.08 0" stroke="#1e1e1e" stroke-width="2" fill="none"></path></g></g><mask></mask><g stroke-linecap="round"><g transform="translate(634.4859622952171 212.49999925665315) rotate(0 27.042333902095777 0)"><path d="M0 0 C9.01 0, 45.07 0, 54.08 0 M0 0 C9.01 0, 45.07 0, 54.08 0" stroke="#1e1e1e" stroke-width="2" fill="none"></path></g><g transform="translate(634.4859622952171 212.49999925665315) rotate(0 27.042333902095777 0)"><path d="M54.08 0 L40.49 6.34 L40.49 -6.34 L54.08 0" stroke="none" stroke-width="0" fill="#1e1e1e" fill-rule="evenodd"></path><path d="M54.08 0 C49.58 2.1, 45.08 4.2, 40.49 6.34 M54.08 0 C49.9 1.95, 45.71 3.9, 40.49 6.34 M40.49 6.34 C40.49 3.02, 40.49 -0.29, 40.49 -6.34 M40.49 6.34 C40.49 1.7, 40.49 -2.94, 40.49 -6.34 M40.49 -6.34 C45.38 -4.06, 50.28 -1.77, 54.08 0 M40.49 -6.34 C44.91 -4.28, 49.32 -2.22, 54.08 0 M54.08 0 C54.08 0, 54.08 0, 54.08 0 M54.08 0 C54.08 0, 54.08 0, 54.08 0" stroke="#1e1e1e" stroke-width="2" fill="none"></path></g></g><mask></mask><g stroke-linecap="round"><g transform="translate(634.4859623295362 48.24999932999549) rotate(0 27.042333902095777 0)"><path d="M0 0 C9.01 0, 45.07 0, 54.08 0 M0 0 C9.01 0, 45.07 0, 54.08 0" stroke="#1e1e1e" stroke-width="2" fill="none"></path></g><g transform="translate(634.4859623295362 48.24999932999549) rotate(0 27.042333902095777 0)"><path d="M54.08 0 L40.49 6.34 L40.49 -6.34 L54.08 0" stroke="none" stroke-width="0" fill="#1e1e1e" fill-rule="evenodd"></path><path d="M54.08 0 C51.27 1.31, 48.46 2.62, 40.49 6.34 M54.08 0 C50.01 1.9, 45.94 3.8, 40.49 6.34 M40.49 6.34 C40.49 1.52, 40.49 -3.3, 40.49 -6.34 M40.49 6.34 C40.49 3.29, 40.49 0.24, 40.49 -6.34 M40.49 -6.34 C43.91 -4.75, 47.32 -3.15, 54.08 0 M40.49 -6.34 C43.6 -4.89, 46.71 -3.44, 54.08 0 M54.08 0 C54.08 0, 54.08 0, 54.08 0 M54.08 0 C54.08 0, 54.08 0, 54.08 0" stroke="#1e1e1e" stroke-width="2" fill="none"></path></g></g><mask></mask><g stroke-linecap="round" transform="translate(635.4625477829982 532.8462523410176) rotate(0 27.483622170580986 8.456499129409622)"><path d="M0 0 L54.97 0 L54.97 16.91 L0 16.91" stroke="none" stroke-width="0" fill="#ffec99"></path><path d="M0 0 C17.19 0, 34.39 0, 54.97 0 M0 0 C14.99 0, 29.98 0, 54.97 0 M54.97 0 C54.97 4.17, 54.97 8.34, 54.97 16.91 M54.97 0 C54.97 6.32, 54.97 12.64, 54.97 16.91 M54.97 16.91 C40.94 16.91, 26.92 16.91, 0 16.91 M54.97 16.91 C36.78 16.91, 18.59 16.91, 0 16.91 M0 16.91 C0 10.53, 0 4.16, 0 0 M0 16.91 C0 13.07, 0 9.24, 0 0" stroke="transparent" stroke-width="2" fill="none"></path></g><g stroke-linecap="round" transform="translate(635.4625476917989 493.57408255675364) rotate(0 27.48362217058093 8.456499129409622)"><path d="M0 0 L54.97 0 L54.97 16.91 L0 16.91" stroke="none" stroke-width="0" fill="#a5d8ff"></path><path d="M0 0 C21.48 0, 42.95 0, 54.97 0 M0 0 C14.4 0, 28.8 0, 54.97 0 M54.97 0 C54.97 5.53, 54.97 11.06, 54.97 16.91 M54.97 0 C54.97 5.95, 54.97 11.89, 54.97 16.91 M54.97 16.91 C33.51 16.91, 12.06 16.91, 0 16.91 M54.97 16.91 C36.89 16.91, 18.82 16.91, 0 16.91 M0 16.91 C0 11.2, 0 5.48, 0 0 M0 16.91 C0 12.74, 0 8.56, 0 0" stroke="transparent" stroke-width="2" fill="none"></path></g><g transform="translate(708.2069489087729 490.0305822093296) rotate(0 76.171875 12)"><text x="76.171875" y="19.3125" font-family="Cascadia, Segoe UI Emoji" font-size="20px" fill="#1e1e1e" text-anchor="middle" style="white-space: pre;" direction="ltr" dominant-baseline="alphabetic">Abstract Type</text></g><g transform="translate(708.2069488507913 529.3027505607924) rotate(0 76.171875 12)"><text x="76.171875" y="19.3125" font-family="Cascadia, Segoe UI Emoji" font-size="20px" fill="#1e1e1e" text-anchor="middle" style="white-space: pre;" direction="ltr" dominant-baseline="alphabetic">Concrete Type</text></g><g stroke-linecap="round" transform="translate(611.1645280690291 472.1154563079617) rotate(0 142.45305119471442 48.73393835271304)"><path d="M24.37 0 C111.96 0, 199.55 0, 260.54 0 M260.54 0 C276.78 0, 284.91 8.12, 284.91 24.37 M284.91 24.37 C284.91 34.33, 284.91 44.29, 284.91 73.1 M284.91 73.1 C284.91 89.35, 276.78 97.47, 260.54 97.47 M260.54 97.47 C188.92 97.47, 117.3 97.47, 24.37 97.47 M24.37 97.47 C8.12 97.47, 0 89.35, 0 73.1 M0 73.1 C0 57.79, 0 42.48, 0 24.37 M0 24.37 C0 8.12, 8.12 0, 24.37 0" stroke="#ced4da" stroke-width="2.5" fill="none" stroke-dasharray="8 10"></path></g></svg>